PathFileType	4	(X/Y/Z)	C:\Users\italobelli\Desktop\GitHub\PTbot_officialCBL\Personal_Results\SHRUG22_noisy2.trc
DataRate	CameraRate	NumFrames	NumMarkers	Units	OrigDataRate	OrigDataStartFrame	OrigNumFrames
110.888889	110.888889	47	9	m	110.888889	251	500
Frame#	Time		gu		centelbow		EpL		centpxt8		centijc7		ij		ts		aa		ai
			X1	Y1	Z1	X2	Y2	Z2	X3	Y3	Z3	X4	Y4	Z4	X5	Y5	Z5	X6	Y6	Z6	X7	Y7	Z7	X8	Y8	Z8	X9	Y9	Z9

251	2.2545	-0.12631	0.050573	0.14962	-0.12713	-0.18993	0.21465	-0.1238	-0.17715	0.24403	-0.046816	-0.15316	-0.008669	-0.046816	0.031938	-0.008669	0	0	0	-0.13005	0.042266	0.014667	-0.15766	0.079525	0.12453	-0.14187	-0.063799	0.053478
252	2.2635	-0.12628	0.050584	0.14963	-0.12722	-0.19004	0.21459	-0.12388	-0.17727	0.24398	-0.046816	-0.15316	-0.008669	-0.046816	0.031938	-0.008669	0	0	0	-0.13005	0.042276	0.014667	-0.15764	0.079504	0.12454	-0.14187	-0.063799	0.05345
253	2.2725	-0.12625	0.050595	0.14964	-0.12731	-0.19015	0.21453	-0.12396	-0.17739	0.24392	-0.046816	-0.15316	-0.008669	-0.046816	0.031938	-0.008669	0	0	0	-0.13005	0.042287	0.014668	-0.15763	0.079484	0.12456	-0.14186	-0.0638	0.053422
254	2.2816	-0.12622	0.050606	0.14965	-0.12739	-0.19027	0.21448	-0.12404	-0.1775	0.24387	-0.046816	-0.15316	-0.008669	-0.046816	0.031938	-0.008669	0	0	0	-0.13005	0.042297	0.014669	-0.15761	0.079463	0.12457	-0.14186	-0.0638	0.053393
255	2.2906	-0.12619	0.050617	0.14967	-0.12748	-0.19038	0.21442	-0.12412	-0.17762	0.24381	-0.046816	-0.15316	-0.008669	-0.046816	0.031938	-0.008669	0	0	0	-0.13005	0.042308	0.01467	-0.15759	0.079441	0.12459	-0.14186	-0.0638	0.053363
256	2.2996	-0.12616	0.050627	0.14968	-0.12756	-0.19049	0.21436	-0.1242	-0.17774	0.24376	-0.046816	-0.15316	-0.008669	-0.046816	0.031938	-0.008669	0	0	0	-0.13005	0.042319	0.014671	-0.15757	0.07942	0.12461	-0.14186	-0.063801	0.053333
257	2.3086	-0.12612	0.050638	0.14969	-0.12764	-0.1906	0.2143	-0.12427	-0.17786	0.2437	-0.046816	-0.15316	-0.008669	-0.046816	0.031938	-0.008669	0	0	0	-0.13004	0.04233	0.014673	-0.15755	0.079398	0.12462	-0.14186	-0.063801	0.053302
258	2.3176	-0.12609	0.050649	0.14971	-0.12773	-0.19072	0.21424	-0.12435	-0.17798	0.24364	-0.046816	-0.15316	-0.008669	-0.046816	0.031938	-0.008669	0	0	0	-0.13004	0.042341	0.014674	-0.15753	0.079376	0.12464	-0.14186	-0.063802	0.05327
259	2.3267	-0.12606	0.050659	0.14972	-0.1278	-0.19083	0.21418	-0.12442	-0.1781	0.24359	-0.046816	-0.15316	-0.008669	-0.046816	0.031938	-0.008669	0	0	0	-0.13004	0.042352	0.014676	-0.15752	0.079353	0.12466	-0.14186	-0.063802	0.053238
260	2.3357	-0.12603	0.050669	0.14973	-0.12788	-0.19095	0.21413	-0.12449	-0.17823	0.24353	-0.046816	-0.15316	-0.008669	-0.046816	0.031938	-0.008669	0	0	0	-0.13004	0.042364	0.014678	-0.1575	0.079331	0.12468	-0.14186	-0.063802	0.053205
261	2.3447	-0.126	0.050679	0.14975	-0.12796	-0.19106	0.21407	-0.12455	-0.17835	0.24348	-0.046816	-0.15316	-0.008669	-0.046816	0.031938	-0.008669	0	0	0	-0.13004	0.042375	0.01468	-0.15748	0.079308	0.1247	-0.14186	-0.063803	0.053171
262	2.3537	-0.12597	0.050689	0.14976	-0.12803	-0.19118	0.21401	-0.12461	-0.17847	0.24342	-0.046816	-0.15316	-0.008669	-0.046816	0.031938	-0.008669	0	0	0	-0.13004	0.042387	0.014683	-0.15746	0.079284	0.12472	-0.14186	-0.063803	0.053136
263	2.3627	-0.12594	0.050699	0.14978	-0.1281	-0.1913	0.21395	-0.12467	-0.1786	0.24336	-0.046816	-0.15316	-0.008669	-0.046816	0.031938	-0.008669	0	0	0	-0.13004	0.042399	0.014686	-0.15744	0.079261	0.12474	-0.14186	-0.063804	0.0531
264	2.3717	-0.12591	0.050708	0.14979	-0.12816	-0.19142	0.21389	-0.12472	-0.17872	0.2433	-0.046816	-0.15316	-0.008669	-0.046816	0.031938	-0.008669	0	0	0	-0.13004	0.042412	0.014688	-0.15742	0.079237	0.12476	-0.14186	-0.063804	0.053064
265	2.3808	-0.12587	0.050718	0.14981	-0.12823	-0.19154	0.21383	-0.12477	-0.17885	0.24325	-0.046816	-0.15316	-0.008669	-0.046816	0.031938	-0.008669	0	0	0	-0.13004	0.042424	0.014692	-0.1574	0.079212	0.12478	-0.14186	-0.063805	0.053027
266	2.3898	-0.12584	0.050727	0.14982	-0.12829	-0.19166	0.21377	-0.12482	-0.17898	0.24319	-0.046816	-0.15316	-0.008669	-0.046816	0.031938	-0.008669	0	0	0	-0.13004	0.042437	0.014695	-0.15738	0.079188	0.1248	-0.14186	-0.063805	0.052988
267	2.3988	-0.12581	0.050736	0.14984	-0.12834	-0.19178	0.21371	-0.12486	-0.17911	0.24313	-0.046816	-0.15316	-0.008669	-0.046816	0.031938	-0.008669	0	0	0	-0.13004	0.04245	0.014699	-0.15736	0.079163	0.12482	-0.14186	-0.063806	0.052949
268	2.4078	-0.12578	0.050744	0.14985	-0.12839	-0.19191	0.21365	-0.1249	-0.17924	0.24307	-0.046816	-0.15316	-0.008669	-0.046816	0.031938	-0.008669	0	0	0	-0.13004	0.042463	0.014703	-0.15734	0.079137	0.12485	-0.14186	-0.063806	0.05291
269	2.4168	-0.12575	0.050752	0.14987	-0.12844	-0.19203	0.21359	-0.12493	-0.17938	0.24301	-0.046816	-0.15316	-0.008669	-0.046816	0.031938	-0.008669	0	0	0	-0.13004	0.042476	0.014707	-0.15732	0.079112	0.12487	-0.14186	-0.063806	0.052869
270	2.4259	-0.12572	0.05076	0.14988	-0.12848	-0.19216	0.21353	-0.12496	-0.17951	0.24296	-0.046816	-0.15316	-0.008669	-0.046816	0.031938	-0.008669	0	0	0	-0.13004	0.04249	0.014711	-0.1573	0.079086	0.12489	-0.14186	-0.063807	0.052827
271	2.4349	-0.12568	0.050768	0.1499	-0.12852	-0.19229	0.21346	-0.12498	-0.17965	0.2429	-0.046816	-0.15316	-0.008669	-0.046816	0.031938	-0.008669	0	0	0	-0.13004	0.042504	0.014716	-0.15728	0.079059	0.12492	-0.14186	-0.063807	0.052784
272	2.4439	-0.12565	0.050776	0.14991	-0.12856	-0.19242	0.2134	-0.125	-0.17978	0.24284	-0.046816	-0.15316	-0.008669	-0.046816	0.031938	-0.008669	0	0	0	-0.13004	0.042518	0.014721	-0.15726	0.079032	0.12494	-0.14186	-0.063808	0.05274
273	2.4529	-0.12562	0.050783	0.14993	-0.12858	-0.19255	0.21334	-0.12501	-0.17992	0.24278	-0.046816	-0.15316	-0.008669	-0.046816	0.031938	-0.008669	0	0	0	-0.13004	0.042532	0.014727	-0.15724	0.079005	0.12497	-0.14186	-0.063808	0.052695
274	2.4619	-0.12559	0.05079	0.14995	-0.12861	-0.19268	0.21328	-0.12501	-0.18006	0.24272	-0.046816	-0.15316	-0.008669	-0.046816	0.031938	-0.008669	0	0	0	-0.13004	0.042547	0.014732	-0.15722	0.078977	0.12499	-0.14186	-0.063809	0.052649
275	2.4709	-0.12555	0.050796	0.14996	-0.12862	-0.19282	0.21321	-0.12501	-0.18021	0.24266	-0.046816	-0.15316	-0.008669	-0.046816	0.031938	-0.008669	0	0	0	-0.13004	0.042562	0.014738	-0.1572	0.078949	0.12502	-0.14186	-0.063809	0.052603
276	2.48	-0.12552	0.050802	0.14998	-0.12864	-0.19296	0.21315	-0.125	-0.18035	0.2426	-0.046816	-0.15316	-0.008669	-0.046816	0.031938	-0.008669	0	0	0	-0.13004	0.042577	0.014745	-0.15718	0.078921	0.12505	-0.14186	-0.06381	0.052555
277	2.489	-0.12549	0.050808	0.15	-0.12864	-0.1931	0.21309	-0.12499	-0.1805	0.24254	-0.046816	-0.15316	-0.008669	-0.046816	0.031938	-0.008669	0	0	0	-0.13004	0.042593	0.014751	-0.15716	0.078892	0.12507	-0.14186	-0.06381	0.052506
278	2.498	-0.12546	0.050814	0.15002	-0.12864	-0.19324	0.21302	-0.12497	-0.18065	0.24247	-0.046816	-0.15316	-0.008669	-0.046816	0.031938	-0.008669	0	0	0	-0.13004	0.042608	0.014758	-0.15713	0.078863	0.1251	-0.14186	-0.063811	0.052455
279	2.507	-0.12542	0.050814	0.15003	-0.12863	-0.19338	0.21296	-0.12493	-0.1808	0.24241	-0.046816	-0.15316	-0.008669	-0.046816	0.031938	-0.008669	0	0	0	-0.13004	0.042626	0.014767	-0.15711	0.07883	0.12514	-0.14186	-0.063811	0.052402
280	2.516	-0.12539	0.050799	0.15005	-0.12861	-0.19353	0.21289	-0.12488	-0.18096	0.24235	-0.046816	-0.15316	-0.008669	-0.046816	0.031938	-0.008669	0	0	0	-0.13004	0.042651	0.01478	-0.15709	0.078789	0.12518	-0.14186	-0.063812	0.052339
281	2.5251	-0.12536	0.050769	0.15007	-0.12857	-0.19369	0.21283	-0.12482	-0.18112	0.24229	-0.046816	-0.15316	-0.008669	-0.046816	0.031938	-0.008669	0	0	0	-0.13005	0.042681	0.014797	-0.15706	0.078739	0.12523	-0.14187	-0.063813	0.052267
282	2.5341	-0.12533	0.050723	0.15009	-0.12852	-0.19386	0.21276	-0.12473	-0.1813	0.24222	-0.046816	-0.15316	-0.008669	-0.046816	0.031938	-0.008669	0	0	0	-0.13006	0.042717	0.014818	-0.15702	0.07868	0.12529	-0.14187	-0.063814	0.052188
283	2.5431	-0.12529	0.050663	0.15011	-0.12845	-0.19403	0.2127	-0.12464	-0.18148	0.24216	-0.046816	-0.15316	-0.008669	-0.046816	0.031938	-0.008669	0	0	0	-0.13006	0.042759	0.014844	-0.15699	0.078612	0.12536	-0.14188	-0.063815	0.052099
284	2.5521	-0.12526	0.050588	0.15012	-0.12838	-0.1942	0.21263	-0.12452	-0.18167	0.24209	-0.046816	-0.15316	-0.008669	-0.046816	0.031938	-0.008669	0	0	0	-0.13007	0.042807	0.014874	-0.15695	0.078536	0.12544	-0.14188	-0.063816	0.052003
285	2.5611	-0.12523	0.050499	0.15014	-0.12829	-0.19438	0.21256	-0.12439	-0.18186	0.24202	-0.046816	-0.15316	-0.008669	-0.046816	0.031938	-0.008669	0	0	0	-0.13008	0.042859	0.014908	-0.15691	0.078452	0.12552	-0.14189	-0.063818	0.0519
286	2.5701	-0.12519	0.050396	0.15016	-0.12819	-0.19457	0.21249	-0.12425	-0.18206	0.24195	-0.046816	-0.15316	-0.008669	-0.046816	0.031938	-0.008669	0	0	0	-0.1301	0.042916	0.014946	-0.15686	0.078359	0.12562	-0.1419	-0.063819	0.051789
287	2.5792	-0.12516	0.05028	0.15018	-0.12808	-0.19477	0.21242	-0.1241	-0.18227	0.24189	-0.046816	-0.15316	-0.008669	-0.046816	0.031938	-0.008669	0	0	0	-0.13011	0.042978	0.014988	-0.15682	0.078259	0.12572	-0.14191	-0.063821	0.05167
288	2.5882	-0.12513	0.05015	0.1502	-0.12795	-0.19497	0.21235	-0.12393	-0.18249	0.24182	-0.046816	-0.15316	-0.008669	-0.046816	0.031938	-0.008669	0	0	0	-0.13013	0.043045	0.015033	-0.15677	0.07815	0.12583	-0.14193	-0.063822	0.051546
289	2.5972	-0.12509	0.050007	0.15022	-0.12782	-0.19518	0.21227	-0.12375	-0.18271	0.24175	-0.046816	-0.15316	-0.008669	-0.046816	0.031938	-0.008669	0	0	0	-0.13014	0.043115	0.015083	-0.15671	0.078034	0.12595	-0.14194	-0.063824	0.051414
290	2.6062	-0.12506	0.049852	0.15024	-0.12768	-0.19539	0.2122	-0.12356	-0.18294	0.24167	-0.046816	-0.15316	-0.008669	-0.046816	0.031938	-0.008669	0	0	0	-0.13016	0.043189	0.015136	-0.15666	0.077911	0.12608	-0.14195	-0.063826	0.051277
291	2.6152	-0.12502	0.049684	0.15026	-0.12753	-0.19561	0.21213	-0.12336	-0.18317	0.2416	-0.046816	-0.15316	-0.008669	-0.046816	0.031938	-0.008669	0	0	0	-0.13018	0.043267	0.015193	-0.1566	0.07778	0.12621	-0.14197	-0.063828	0.051133
292	2.6242	-0.12499	0.049505	0.15028	-0.12738	-0.19583	0.21205	-0.12315	-0.18341	0.24153	-0.046816	-0.15316	-0.008669	-0.046816	0.031938	-0.008669	0	0	0	-0.1302	0.043349	0.015254	-0.15653	0.077641	0.12635	-0.14199	-0.06383	0.050984
293	2.6333	-0.12495	0.049313	0.1503	-0.12721	-0.19607	0.21198	-0.12293	-0.18366	0.24145	-0.046816	-0.15316	-0.008669	-0.046816	0.031938	-0.008669	0	0	0	-0.13023	0.043433	0.015318	-0.15647	0.077496	0.1265	-0.14201	-0.063833	0.050829
294	2.6423	-0.12492	0.049111	0.15032	-0.12704	-0.1963	0.2119	-0.1227	-0.18391	0.24138	-0.046816	-0.15316	-0.008669	-0.046816	0.031938	-0.008669	0	0	0	-0.13025	0.04352	0.015385	-0.1564	0.077343	0.12665	-0.14203	-0.063835	0.05067
295	2.6513	-0.12488	0.048897	0.15034	-0.12687	-0.19654	0.21182	-0.12246	-0.18418	0.2413	-0.046816	-0.15316	-0.008669	-0.046816	0.031938	-0.008669	0	0	0	-0.13028	0.04361	0.015456	-0.15633	0.077184	0.12681	-0.14205	-0.063838	0.050505
296	2.6603	-0.12484	0.048673	0.15036	-0.12668	-0.19679	0.21174	-0.12222	-0.18444	0.24122	-0.046816	-0.15316	-0.008669	-0.046816	0.031938	-0.008669	0	0	0	-0.1303	0.043702	0.015531	-0.15626	0.077018	0.12698	-0.14207	-0.063841	0.050337
297	2.6693	-0.1248	0.048438	0.15038	-0.12649	-0.19705	0.21166	-0.12197	-0.18472	0.24114	-0.046816	-0.15316	-0.008669	-0.046816	0.031938	-0.008669	0	0	0	-0.13033	0.043797	0.015608	-0.15618	0.076846	0.12716	-0.1421	-0.063844	0.050164
